<svg xmlns="http://www.w3.org/2000/svg" width="1100" height="760" viewBox="0 0 1100 760"><rect width="1100" height="760" fill="#f4f4f4"/><rect x="0" y="0" width="1100" height="104" fill="#fff"/><rect x="0" y="104" width="1100" height="4" fill="#0f62fe"/><text x="60" y="48" font-family="IBM Plex Sans, Arial" font-size="31" font-weight="600" fill="#161616">Technical Content Workflow</text><text x="60" y="76" font-family="IBM Plex Sans, Arial" font-size="15" fill="#525252">Source-grounded content planning with review gates</text><text x="60" y="136" font-family="IBM Plex Sans, Arial" font-size="18" font-weight="600" fill="#161616">System side</text><text x="585" y="136" font-family="IBM Plex Sans, Arial" font-size="18" font-weight="600" fill="#161616">Review Outputs</text><g transform="translate(60 170)"><rect width="455" height="54" rx="2" fill="#ffffff" stroke="#dfe3e6"/><rect width="5" height="54" fill="#0f62fe"/><text x="22" y="24" font-family="IBM Plex Sans, Arial" font-size="15" font-weight="600" fill="#161616">Source</text><text x="22" y="43" font-family="IBM Plex Sans, Arial" font-size="12" fill="#525252">Approved technical material only</text></g>
<g transform="translate(60 246)"><rect width="455" height="54" rx="2" fill="#ffffff" stroke="#dfe3e6"/><rect width="5" height="54" fill="#0f62fe"/><text x="22" y="24" font-family="IBM Plex Sans, Arial" font-size="15" font-weight="600" fill="#161616">Extract</text><text x="22" y="43" font-family="IBM Plex Sans, Arial" font-size="12" fill="#525252">Facts and claims are identified</text></g>
<g transform="translate(60 322)"><rect width="455" height="54" rx="2" fill="#ffffff" stroke="#dfe3e6"/><rect width="5" height="54" fill="#0f62fe"/><text x="22" y="24" font-family="IBM Plex Sans, Arial" font-size="15" font-weight="600" fill="#161616">Angles</text><text x="22" y="43" font-family="IBM Plex Sans, Arial" font-size="12" fill="#525252">Content ideas are drafted</text></g>
<g transform="translate(60 398)"><rect width="455" height="54" rx="2" fill="#ffffff" stroke="#dfe3e6"/><rect width="5" height="54" fill="#0f62fe"/><text x="22" y="24" font-family="IBM Plex Sans, Arial" font-size="15" font-weight="600" fill="#161616">Calendar</text><text x="22" y="43" font-family="IBM Plex Sans, Arial" font-size="12" fill="#525252">Planning structure is created</text></g><g transform="translate(585 170)"><rect width="455" height="54" rx="2" fill="#ffffff" stroke="#dfe3e6"/><rect width="5" height="54" fill="#24a148"/><text x="22" y="24" font-family="IBM Plex Sans, Arial" font-size="15" font-weight="600" fill="#161616">Carousel</text><text x="22" y="43" font-family="IBM Plex Sans, Arial" font-size="12" fill="#525252">Outline is drafted, not auto-published</text></g>
<g transform="translate(585 246)"><rect width="455" height="54" rx="2" fill="#ffffff" stroke="#dfe3e6"/><rect width="5" height="54" fill="#24a148"/><text x="22" y="24" font-family="IBM Plex Sans, Arial" font-size="15" font-weight="600" fill="#161616">Image prompt</text><text x="22" y="43" font-family="IBM Plex Sans, Arial" font-size="12" fill="#525252">Brand style rules guide visuals</text></g>
<g transform="translate(585 322)"><rect width="455" height="54" rx="2" fill="#ffffff" stroke="#dfe3e6"/><rect width="5" height="54" fill="#24a148"/><text x="22" y="24" font-family="IBM Plex Sans, Arial" font-size="15" font-weight="600" fill="#161616">Approval</text><text x="22" y="43" font-family="IBM Plex Sans, Arial" font-size="12" fill="#525252">Human review validates claims</text></g>
<g transform="translate(585 398)"><rect width="455" height="54" rx="2" fill="#ffffff" stroke="#dfe3e6"/><rect width="5" height="54" fill="#24a148"/><text x="22" y="24" font-family="IBM Plex Sans, Arial" font-size="15" font-weight="600" fill="#161616">Package</text><text x="22" y="43" font-family="IBM Plex Sans, Arial" font-size="12" fill="#525252">Final outputs stay outside Git</text></g><rect x="60" y="675" width="980" height="48" rx="2" fill="#e0e0e0"/><text x="82" y="705" font-family="IBM Plex Sans, Arial" font-size="13" fill="#393939">Portfolio-safe diagram. No real client, CRM, tender, calendar, or operational data is represented.</text></svg>